<?xml version="1.0" encoding="utf-8"?>
<!-- Generator: Adobe Illustrator 25.3.1, SVG Export Plug-In . SVG Version: 6.00 Build 0)  -->
<svg version="1.1" id="Layer_1" xmlns="http://www.w3.org/2000/svg" xmlns:xlink="http://www.w3.org/1999/xlink" x="0px" y="0px"
	 viewBox="0 0 687.4 426" style="enable-background:new 0 0 687.4 426;" xml:space="preserve">
<style type="text/css">
	.st0{fill:#B3B2B3;}
</style>
<g>
	<g>
		<g>
			<g>
				<path class="st0" d="M580.2,90.4l-32,63c-0.1,0.5-0.2,0.9-0.3,1.4v9.6l74.8,147.2h61.6c1.2-1.2,1.9-1.9,3.1-3.1v-7.3L580.2,90.4
					z"/>
			</g>
			<g>
				<path class="st0" d="M107.1,221.1l32-63c0.1-0.5,0.2-0.9,0.3-1.4v-9.6L64.7,0L3.1,0C1.9,1.2,1.2,1.9,0,3.1l0,7.3L107.1,221.1z"
					/>
			</g>
			<g>
				<path class="st0" d="M404.9,10.3V3.1c-1.2-1.2-1.9-1.9-3.1-3.1l-61.6,0L238,201.2v7.3c1.2,1.2,1.9,1.9,3.1,3.1h11h50.7
					L404.9,10.3z"/>
			</g>
			<g>
				<path class="st0" d="M306.6,0l-61.6,0L91.9,301.2v7.3c1.2,1.2,1.9,1.9,3.1,3.1h61.6L309.6,10.3V3.1C308.4,1.9,307.8,1.2,306.6,0
					z"/>
			</g>
			<g>
				<path class="st0" d="M497.2,0l-61.6,0L282.5,301.2v7.3c1.2,1.2,1.9,1.9,3.1,3.1h61.6L500.2,10.3V3.1C499,1.9,498.4,1.2,497.2,0z
					"/>
			</g>
			<g>
				<path class="st0" d="M592.5,0l-61.6,0L377.7,301.2v7.3c1.2,1.2,1.9,1.9,3.1,3.1h61.6L595.5,10.3V3.1
					C594.3,1.9,593.6,1.2,592.5,0z"/>
			</g>
		</g>
		<g>
			<polygon class="st0" points="553.8,229 551.4,224.2 536,193.9 527.6,193.9 512.2,224.2 509.8,229 494.1,259.8 498,267.5 
				529.3,267.5 534.3,267.5 565.6,267.5 569.5,259.8 			"/>
		</g>
	</g>
</g>
<g>
	<g>
		<path class="st0" d="M400.3,406.9h-7.7l-18.9-47.5l-18.9,47.5H347l22.8-57.2h7.7L400.3,406.9z"/>
	</g>
	<g>
		<path class="st0" d="M449.8,373.9h5.8v33.1h-5.8V373.9z"/>
	</g>
	<g>
		<path class="st0" d="M294.7,377.3c-1.8-1.5-4.3-2.3-6.8-2.3H284c-2.6,0-5,0.8-6.8,2.3c-1.8,1.5-2.8,3.5-2.8,5.6v2.3h5.8v-2.3
			c0-1.8,1.7-3.2,3.9-3.2h3.9c2.1,0,3.9,1.4,3.9,3.2v5h-3.9H287h-3c-2.6,0-5,0.8-6.8,2.3c-1.8,1.5-2.8,3.5-2.8,5.6v0.9v1.8v0.4
			c0,2.1,1,4.1,2.8,5.6c1.8,1.5,4.3,2.3,6.8,2.3h3.9v-4.8h-3.4h-0.5c-2.1,0-3.8-1.4-3.8-3.2v-2.3v-0.9c0-1.8,1.7-3.2,3.9-3.2h3h4.7
			v4.7v1.6c0,0,0,0,0,0v7.9h5.8v-24C297.5,380.8,296.5,378.8,294.7,377.3z"/>
	</g>
	<g>
		<path class="st0" d="M257.9,377.5c-1.8-1.5-4.3-2.3-6.8-2.3h-0.7h-3.2v4.8h3.2h0.7c2.1,0,3.9,1.4,3.9,3.2V399
			c0,1.8-1.7,3.2-3.9,3.2h-1.9h-5.8v-6.4v-13.6v-3.7v-5v-4.8v-0.6v-1.7v-16.7h-5.8v57.2h2.9h2.9h3.9h1.9h1.9c2.6,0,5-0.8,6.8-2.3
			c1.8-1.5,2.8-3.5,2.8-5.6v-15.9C260.8,381,259.8,379,257.9,377.5z"/>
	</g>
	<g>
		<path class="st0" d="M221.2,377.5c-1.8-1.5-4.3-2.3-6.8-2.3h-1.5h-6.2h-3.9h-0.4h-7.3v31.8h5.8v-27h1.9c1,0,2,0.3,2.7,0.9
			c0.7,0.6,1.1,1.4,1.1,2.2v19.1h5.8v-22.2h1.9c1,0,2,0.3,2.7,0.9c0.7,0.6,1.1,1.4,1.1,2.2v23.8h5.8v-23.8
			C224.1,381,223.1,379,221.2,377.5z"/>
	</g>
	<g>
		<path class="st0" d="M489.5,377.5c-1.8-1.5-4.3-2.3-6.8-2.3h-1h-2.9h-3.9h-1.7h-4.1V426h5.8v-11.6v-8.1V399v-4.9V385v-1.9v-3.2
			h3.9h1.8h2c1,0,2,0.3,2.7,0.9c0.7,0.6,1.1,1.4,1.1,2.2V399c0,1.8-1.7,3.2-3.9,3.2h-3.9v4.8h3.9c2.6,0,5-0.8,6.8-2.3
			c1.8-1.5,2.8-3.5,2.8-5.6v-15.9C492.3,381,491.3,379,489.5,377.5z"/>
	</g>
	<g>
		<path class="st0" d="M452.9,355.6l-6.2,7.9l5.7,7.9l6.2-7.9L452.9,355.6z M449.3,366.7l0.9-5.6l5.8-0.7l-0.9,5.6L449.3,366.7z"/>
	</g>
	<g>
		<polygon class="st0" points="159.6,385 156.5,390.8 170.8,390.8 173.8,385 		"/>
	</g>
	<g>
		<polygon class="st0" points="516.6,385 513.5,390.8 527.8,390.8 530.8,385 		"/>
	</g>
	<g>
		<polygon class="st0" points="373.6,387.9 379.3,397.4 373.6,397.4 368,397.4 373.6,387.9 362.3,387.9 373.6,406.9 385,387.9 		"/>
	</g>
	<g>
		<g>
			<polygon class="st0" points="418.9,375.2 413,375.2 413,406.9 418.8,406.9 418.8,379.9 418.9,379.9 			"/>
		</g>
		<g>
			<path class="st0" d="M433.4,377.5c-1.8-1.5-4.3-2.3-6.8-2.3h-3.9v4.8h3.9c2.1,0,3.9,1.4,3.9,3.2v4.8h5.8v-4.8
				C436.3,381,435.2,379,433.4,377.5z"/>
		</g>
	</g>
	<g>
		<g>
			<polygon class="st0" points="316.8,375.2 316.8,371.5 316.8,349.7 311,349.7 311,406.9 316.8,406.9 316.8,382.7 316.8,379.9 			
				"/>
		</g>
		<g>
			<path class="st0" d="M331.4,377.5c-1.8-1.5-4.3-2.3-6.8-2.3h-3.9v4.8h3.9c1,0,2,0.3,2.7,0.9c0.7,0.6,1.1,1.4,1.1,2.2v23.8h5.8
				v-23.8C334.2,381,333.2,379,331.4,377.5z"/>
		</g>
	</g>
	<g>
		<polygon class="st0" points="454.3,361.9 451.4,362.3 451.1,365.2 453.9,364.8 		"/>
	</g>
	<g>
		<polygon class="st0" points="451.1,361.9 453.9,362.3 454.3,365.2 451.4,364.8 		"/>
	</g>
</g>
</svg>
